<?xml version="1.0" encoding="UTF-8"?>
<svg enable-background="new 0 0 512 512" version="1.1" viewBox="0 0 512 512" xmlns="http://www.w3.org/2000/svg">
 <path d="m204 384.8c-35.6 0-52.8-17.4-55.9-20.8-1.7 3.3-9.3 16.6-24.1 16.6-33.1 0-39.3-78.1-39.5-81.5v-0.5h364.2l-0.2 0.6c-1 3.3-25.2 81.4-58.5 81.4-15.8 0-24.4-13.6-26.1-16.7-3.1 3.1-20.9 19.5-51.6 19.5-31.2 0-52.8-17.7-56.1-20.6-2.3 3.4-16.2 22-52.2 22z" fill="#282972"/>
 <path d="m448 299s-24.7 81-58 81c-17.6 0-26-17-26-17s-17.8 19.9-51.8 19.9-56.2-20.9-56.2-20.9-12.4 22.3-52 22.3-56-21.3-56-21.3-7.4 17-24 17c-33 0-39-81-39-81h363m1.3-1h-365.4l0.1 1.1c0 0.2 1.6 20.6 7.2 40.7 3.3 11.9 7.3 21.3 12 28.1 6 8.7 13 13.1 20.8 13.1 14.2 0 22-12.1 24.2-16.2 1.7 1.9 5.7 5.8 12.4 9.7 8.4 4.9 22.7 10.8 43.4 10.8s34-6.1 41.4-11.3c6.2-4.3 9.5-8.5 10.8-10.4 4.5 3.8 25.8 20.4 56 20.4 29.7 0 47.3-15.2 51.5-19.2 2.4 4 11 16.4 26.2 16.4 14.2 0 28.5-13.8 42.4-41 10.3-20.1 16.5-40.5 16.6-40.7l0.4-1.5z" fill="#2D2D71"/>
 <path d="m173 276h126c0.1-98.7-106-126-106-126s15 93-20 126z" fill="#2D2D71" stroke="#282972" stroke-miterlimit="10" stroke-width="7"/>
 <path d="m323 276l62-20c0-75-98-86-98-86s37.3 59 36 106z" fill="#2D2D71" stroke="#282972" stroke-miterlimit="10" stroke-width="7"/>
 <polygon points="194 127 194 85 299 85" fill="#2C2E71" stroke="#282972" stroke-miterlimit="10" stroke-width="7"/>
 <g fill="#282972">
  <path d="m417.5 474c-30.3 0-48.3-12.5-54.5-17.8-6.4 5.2-24.7 17.8-53.5 17.8-28.7 0-47-11-53.4-15.5-5.8 4.7-22.7 15.5-53.1 15.5-30.9 0-48.7-10.5-54.6-14.7-6.3 4.1-25.2 14.7-51.9 14.7-32.5 0-53.5-18.6-54.3-19.4-0.7-0.7-1.2-1.6-1.2-2.6v-47c0-1.6 1.1-3 2.7-3.4 0.3-0.1 0.5-0.1 0.8-0.1 1.3 0 2.5 0.7 3.1 1.9 0.1 0.2 9.9 18.1 47.9 18.1 38.4 0 51.5-18.3 51.6-18.5 0.6-0.9 1.6-1.4 2.7-1.5h0.2c1 0 2 0.4 2.6 1.2 0.2 0.2 19.4 21.3 50.4 21.3s50.2-21.1 50.4-21.3c0.7-0.7 1.6-1.2 2.6-1.2s1.9 0.4 2.6 1.1c0.2 0.2 20.4 21.4 51.9 21.4 31.4 0 49.6-21.1 49.8-21.3 0.6-0.7 1.6-1.2 2.5-1.2h0.1c0.9 0 1.8 0.4 2.5 1 0.2 0.2 21.4 21.4 51 21.4s49.7-21.2 49.9-21.4c0.7-0.7 1.6-1.1 2.6-1.1 0.4 0 0.9 0.1 1.3 0.2 1.3 0.5 2.2 1.8 2.2 3.3v47c0 0.8-0.3 1.6-0.8 2.2-0.5 0.9-16.4 19.9-54.1 19.9z"/>
  <path d="m469 405v47s-15 18.5-51.5 18.5-54.5-19-54.5-19-19 19-53.5 19-53.5-16.5-53.5-16.5-16 16.5-53 16.5-54.5-15.5-54.5-15.5-20.5 15.5-52 15.5-52-18.5-52-18.5v-47s10 20 51 20 54.5-20 54.5-20 20 22.5 53 22.5 53-22.5 53-22.5 21 22.5 54.5 22.5 52.5-22.5 52.5-22.5 22 22.5 53.5 22.5 52.5-22.5 52.5-22.5m-424.5-7.1c-0.5 0-1 0.1-1.5 0.2-3.2 0.7-5.5 3.7-5.5 7v47c0 2 0.8 3.9 2.3 5.2 0.9 0.8 22.9 20.3 56.7 20.3 25.2 0 43.7-9.2 51.8-14 7.8 5 25.8 14 54.7 14 28.4 0 45.5-9.2 53.2-14.7 8.1 5.3 26.4 14.7 53.3 14.7s45.2-10.7 53.4-16.9c8.2 6.2 26.3 16.9 54.6 16.9 39.4 0 56.2-20.2 56.9-21.1 1-1.2 1.6-2.8 1.6-4.4v-47c0-2.9-1.8-5.5-4.4-6.5-0.8-0.3-1.7-0.5-2.6-0.5-1.9 0-3.8 0.8-5.1 2.2-0.2 0.2-19.5 20.3-47.4 20.3-28 0-48.3-20.2-48.5-20.4-1.3-1.3-3.1-2.1-5-2.1h-0.3c-2 0.1-3.8 1-5.1 2.5 0 0-4.4 5.1-12.5 10.1-10.6 6.6-22.3 9.9-34.6 9.9-29.9 0-49.2-20.1-49.4-20.3-1.3-1.4-3.2-2.2-5.1-2.2h-0.1c-2 0-3.8 0.9-5.1 2.3-0.2 0.2-18.5 20.2-47.8 20.2s-47.6-20-47.8-20.2c-1.3-1.5-3.2-2.4-5.2-2.4h-0.5c-2.2 0.2-4.1 1.3-5.3 3.1-0.8 1.1-13 16.9-48.7 16.9-34.7 0-44-14.9-44.8-16.2-1.1-2.5-3.5-3.9-6.2-3.9z"/>
 </g>
</svg>
